<svg xmlns="http://www.w3.org/2000/svg" width="512" height="512" viewBox="0 0 24 24"><path fill="#0E033B" d="M10.018 2.225a.99.99 0 0 0-.233.023 9.92 9.92 0 0 0-3.117 1.299c-.537.34-.607 1.1-.158 1.549l.002.002c.322.322.827.398 1.21.154a7.951 7.951 0 0 1 2.536-1.053C10.7 4.1 11 3.685 11 3.232c0-.558-.452-1-.982-1.007zm3.966 0A1.01 1.01 0 0 0 13 3.232v.002c0 .458.309.866.756.967C17.325 5.003 20 8.193 20 12c0 3.807-2.675 6.997-6.244 7.799a.985.985 0 0 0-.756.967v.002c0 .638.593 1.126 1.215.984C18.665 20.742 22 16.753 22 12c0-4.753-3.334-8.741-7.785-9.752a.974.974 0 0 0-.23-.023zM4.28 6.219a.972.972 0 0 0-.732.449 9.943 9.943 0 0 0-1.299 3.117c-.141.622.346 1.215.984 1.215.453 0 .868-.3.967-.742a7.919 7.919 0 0 1 1.053-2.535c.244-.384.168-.89-.154-1.211l-.002-.002a1.013 1.013 0 0 0-.817-.291zm11.7 2.771a1 1 0 0 0-.687.303L11 13.586l-1.293-1.293a1 1 0 1 0-1.414 1.414l2 2a1 1 0 0 0 1.414 0l5-5a1 1 0 0 0-.727-1.717zM3.232 13c-.638 0-1.126.593-.984 1.215a9.92 9.92 0 0 0 1.299 3.117c.339.537 1.1.607 1.549.158.323-.323.4-.829.156-1.213a7.951 7.951 0 0 1-1.053-2.535C4.1 13.3 3.685 13 3.232 13zm3.864 5.613a1.02 1.02 0 0 0-.584.29l-.002.001c-.45.45-.379 1.21.158 1.55a9.943 9.943 0 0 0 3.117 1.298c.622.141 1.215-.346 1.215-.984 0-.453-.3-.868-.742-.967a7.931 7.931 0 0 1-2.533-1.053.935.935 0 0 0-.63-.135z"/></svg>