<svg xmlns="http://www.w3.org/2000/svg" width="24" height="24" fill="none"><path fill="#fff" d="M10.32 4.935a7.239 7.239 0 0 1 7.1 2.252 1.25 1.25 0 1 0 1.87-1.657A9.737 9.737 0 0 0 9.743 2.5a10.269 10.269 0 0 0-7.365 7.11.25.25 0 0 1-.27.177l-1.034-.13a.491.491 0 0 0-.474.22.5.5 0 0 0-.019.525l2.476 4.342a.5.5 0 0 0 .373.248c.02.002.042.002.062 0a.5.5 0 0 0 .36-.152l3.476-3.593a.5.5 0 0 0-.3-.844l-1.878-.232a.25.25 0 0 1-.2-.333 7.7 7.7 0 0 1 5.37-4.903ZM23.406 14.1a.5.5 0 0 0 .015-.526l-2.5-4.329A.5.5 0 0 0 20.546 9a.49.49 0 0 0-.421.151l-3.456 3.614a.5.5 0 0 0 .3.842l1.848.221a.248.248 0 0 1 .218.223.254.254 0 0 1-.012.11 7.688 7.688 0 0 1-5.37 4.9 7.244 7.244 0 0 1-7.1-2.253 1.25 1.25 0 1 0-1.871 1.656 9.74 9.74 0 0 0 9.549 3.03 10.261 10.261 0 0 0 7.369-7.12.25.25 0 0 1 .27-.179l1.058.127a.43.43 0 0 0 .06 0 .5.5 0 0 0 .418-.222Z"/></svg>